<svg xmlns="http://www.w3.org/2000/svg" viewBox="0 0 157.54 38.52"><defs><style>.cls-1{fill:#3215a1;}.cls-2{fill:#e7386f;}</style></defs><title>logo-master</title><g id="Layer_3" data-name="Layer 3"><path class="cls-1" d="M0,3.53H4.75V14.69h.07a6.79,6.79,0,0,1,2.36-2.15,6.69,6.69,0,0,1,3.24-.83c3.19,0,6.56,2.11,6.56,8.13V30.89H12.23V20.36c0-2.72-1-4.79-3.6-4.79A3.92,3.92,0,0,0,5,18.24a4,4,0,0,0-.2,1.43V30.89H0Z"/><path class="cls-1" d="M25.38,22.82c.12,3.4,2.75,4.89,5.79,4.89a14.47,14.47,0,0,0,5.18-.87l.7,3.26a17,17,0,0,1-6.56,1.19c-6.09,0-9.65-3.76-9.65-9.51C20.84,16.6,24,11.71,30,11.71s8.08,5,8.08,9.12a9.89,9.89,0,0,1-.17,2Zm8.25-3.3c0-1.74-.74-4.58-3.92-4.58-2.92,0-4.13,2.66-4.34,4.58Z"/><path class="cls-1" d="M41.92,3.53h4.75V30.89H41.92Z"/><path class="cls-1" d="M51.82,18.35c0-2.43-.07-4.46-.16-6.22h4.17L56.06,15h.08a7.26,7.26,0,0,1,6.43-3.3c4.3,0,7.87,3.68,7.87,9.53,0,6.81-4.26,10.07-8.53,10.07a6.1,6.1,0,0,1-5.27-2.5h-.08v9.71H51.82ZM56.56,23a5.94,5.94,0,0,0,.13,1.29,4.3,4.3,0,0,0,4.16,3.32c3,0,4.78-2.5,4.78-6.19,0-3.32-1.62-6-4.67-6A4.44,4.44,0,0,0,56.73,19a4.89,4.89,0,0,0-.17,1.2Z"/><path class="cls-2" d="M74.36,17.71c0-2.17-.07-4-.15-5.58h4.05l.22,2.75h.11a6.45,6.45,0,0,1,5.77-3.17,5.39,5.39,0,0,1,5.21,3.46h.07a7.64,7.64,0,0,1,2.3-2.36,6.45,6.45,0,0,1,3.81-1.1c3.1,0,6.26,2.12,6.26,8.14v11H97.38V20.51c0-3.12-1.08-5-3.34-5a3.58,3.58,0,0,0-3.3,2.5,5.34,5.34,0,0,0-.24,1.58V30.89H85.87V20c0-2.64-1.05-4.49-3.23-4.49a3.77,3.77,0,0,0-3.42,2.68A4.82,4.82,0,0,0,79,19.8V30.89H74.36Z"/><path class="cls-2" d="M110.37,22.82c.13,3.4,2.76,4.89,5.8,4.89a14.37,14.37,0,0,0,5.17-.87l.7,3.26a17,17,0,0,1-6.55,1.19c-6.09,0-9.66-3.76-9.66-9.51,0-5.18,3.14-10.07,9.18-10.07s8.08,5,8.08,9.12a9.89,9.89,0,0,1-.17,2Zm8.25-3.3c0-1.74-.73-4.58-3.91-4.58-2.92,0-4.13,2.66-4.34,4.58Z"/><path class="cls-2" d="M144.2,3.53v22.1c0,1.92.07,4,.15,5.26h-4.22l-.21-3h-.09a6.69,6.69,0,0,1-6.09,3.39c-4.48,0-8-3.82-8-9.58,0-6.29,3.9-10,8.41-10,2.57,0,4.42,1.06,5.26,2.44h.08V3.53Zm-4.74,16.41a6.39,6.39,0,0,0-.11-1.23,4.17,4.17,0,0,0-4.08-3.33c-3.05,0-4.75,2.69-4.75,6.17s1.71,6,4.7,6a4.19,4.19,0,0,0,4.09-3.37,5.51,5.51,0,0,0,.15-1.38Z"/><polygon class="cls-2" points="154.01 3.53 154.01 0 150.73 0 150.73 3.53 147.2 3.53 147.2 6.81 150.73 6.81 150.73 10.34 154.01 10.34 154.01 6.81 157.54 6.81 157.54 3.53 154.01 3.53"/></g></svg>