<svg width="224" height="275" viewBox="0 0 224 275" fill="none" xmlns="http://www.w3.org/2000/svg">
<path d="M116.348 128.773V210H91.9213V131.597C91.9213 109.6 83.878 90.9883 60.8362 90.9883C45.0166 90.9883 32.5311 102.262 28.0889 115.798C26.7039 119.182 26.4269 122.856 26.4269 127.642V210H2V19.7936C2.32648 19.4531 2.65297 19.1228 2.98934 18.7824C8.78689 12.9154 15.089 7.569 21.8363 2.80332C23.35 1.84218 24.8736 0.911085 26.4269 0V94.933H26.9809C30.869 87.8846 36.9732 81.6772 44.4626 77.4422C51.6848 73.2172 60.2821 70.3938 69.4434 70.3938C87.4792 70.3938 116.348 81.6772 116.348 128.773Z" fill="#3216A1"/>
<path d="M155.744 70.3937C142.971 70.3937 134.087 73.7778 126.044 79.9852C122.819 82.4381 119.692 85.4617 116.833 89.056C119.306 93.5914 121.255 98.6073 122.68 104.074C128.161 96.3046 136.689 90.6979 146.86 90.6979C166.567 90.6979 175.996 106.497 175.996 132.718V210H199.868V129.614C199.868 82.2378 173.503 70.3937 155.744 70.3937ZM222 58.9501V69.1322H211.177V80.0853H201.115V69.1322H190.292V58.9501H201.115V47.9971H211.177V58.9501H222Z" fill="#ED366E"/>
<g clip-path="url(#clip0_85_17753)">
<path d="M0 225.04H6.75384V240.975H6.85337C7.71304 239.698 8.86337 238.646 10.209 237.905C11.6199 237.124 13.205 236.717 14.8158 236.72C19.3515 236.72 24.1432 239.732 24.1432 248.328V264.105H17.3894V249.07C17.3894 245.187 15.9675 242.231 12.2707 242.231C11.1243 242.256 10.0136 242.636 9.08997 243.318C8.16631 244 7.47466 244.952 7.10931 246.043C6.89196 246.701 6.7956 247.393 6.82493 248.085V264.105H0V225.04Z" fill="#3215A1"/>
<path d="M36.0868 252.583C36.2575 257.438 39.997 259.565 44.3194 259.565C46.8294 259.606 49.3256 259.185 51.6847 258.323L52.68 262.978C49.713 264.157 46.5429 264.734 43.3526 264.677C34.6934 264.677 29.6316 259.308 29.6316 251.098C29.6316 243.702 34.1247 236.72 42.6558 236.72C51.187 236.72 54.1445 243.859 54.1445 249.742C54.1606 250.699 54.0796 251.656 53.9028 252.597L36.0868 252.583ZM47.8172 247.871C47.8172 245.387 46.765 241.332 42.2435 241.332C38.0917 241.332 36.3712 245.13 36.0726 247.871H47.8172Z" fill="#3215A1"/>
<path d="M59.6045 225.04H66.3583V264.105H59.6045V225.04Z" fill="#3215A1"/>
<path d="M73.6809 246.201C73.6809 242.731 73.5813 239.833 73.4534 237.32H79.3825L79.7096 241.418H79.8233C80.8048 239.899 82.1652 238.665 83.7692 237.838C85.3732 237.011 87.1649 236.621 88.9659 236.706C95.0799 236.706 100.156 241.96 100.156 250.313C100.156 260.036 94.0988 264.691 88.0274 264.691C86.581 264.772 85.1374 264.488 83.8284 263.864C82.5195 263.241 81.387 262.298 80.5342 261.122H80.4205V274.986H73.6809V246.201ZM80.4205 252.84C80.415 253.459 80.477 254.077 80.6053 254.682C80.9182 256.024 81.6717 257.222 82.7447 258.082C83.8176 258.942 85.1475 259.414 86.5203 259.422C90.7859 259.422 93.3168 255.853 93.3168 250.584C93.3168 245.844 91.0134 242.017 86.6767 242.017C85.2455 242.058 83.8707 242.586 82.7778 243.515C81.685 244.444 80.9389 245.718 80.6622 247.129C80.5112 247.688 80.43 248.263 80.4205 248.842V252.84Z" fill="#3215A1"/>
<path d="M120.73 245.287C120.73 242.189 120.63 239.576 120.516 237.32H126.275L126.588 241.246H126.744C127.581 239.821 128.784 238.649 130.228 237.853C131.671 237.056 133.302 236.665 134.948 236.72C136.541 236.668 138.111 237.115 139.439 238.001C140.766 238.886 141.786 240.165 142.356 241.66H142.456C143.289 240.311 144.405 239.161 145.726 238.291C147.323 237.209 149.218 236.659 151.143 236.72C155.551 236.72 160.044 239.747 160.044 248.342V264.049H153.461V249.285C153.461 244.83 151.925 242.146 148.712 242.146C147.658 242.179 146.64 242.541 145.8 243.18C144.959 243.82 144.337 244.705 144.02 245.715C143.794 246.446 143.679 247.206 143.678 247.971V264.106H137.095V248.557C137.095 244.787 135.602 242.146 132.503 242.146C131.398 242.202 130.338 242.6 129.467 243.285C128.597 243.97 127.958 244.909 127.64 245.972C127.407 246.715 127.301 247.493 127.327 248.271V264.106H120.73V245.287Z" fill="#E7386F"/>
<path d="M171.931 252.583C172.116 257.438 175.855 259.565 180.178 259.565C182.683 259.607 185.175 259.186 187.529 258.323L188.524 262.978C185.561 264.155 182.396 264.732 179.211 264.677C170.552 264.677 165.476 259.308 165.476 251.098C165.476 243.702 169.94 236.72 178.528 236.72C187.116 236.72 190.017 243.859 190.017 249.742C190.033 250.699 189.952 251.656 189.775 252.597L171.931 252.583ZM183.661 247.871C183.661 245.387 182.623 241.332 178.102 241.332C173.95 241.332 172.229 245.13 171.931 247.871H183.661Z" fill="#E7386F"/>
<path d="M220.032 225.04V256.595C220.032 259.337 220.132 262.306 220.246 264.105H214.246L213.947 259.822H213.819C212.958 261.35 211.694 262.61 210.167 263.464C208.639 264.318 206.907 264.733 205.16 264.662C198.79 264.662 193.785 259.208 193.785 250.984C193.785 242.003 199.33 236.705 205.743 236.705C209.397 236.705 212.027 238.219 213.222 240.189H213.336V225.04H220.032ZM213.293 248.471C213.297 247.882 213.245 247.293 213.136 246.714C212.862 245.373 212.135 244.167 211.078 243.301C210.021 242.435 208.699 241.961 207.335 241.96C202.999 241.96 200.581 245.801 200.581 250.77C200.581 255.738 203.013 259.337 207.264 259.337C208.637 259.33 209.966 258.848 211.026 257.971C212.085 257.094 212.811 255.877 213.08 254.525C213.233 253.88 213.305 253.218 213.293 252.554V248.471Z" fill="#E7386F"/>
</g>
<defs>
<clipPath id="clip0_85_17753">
<rect width="224" height="55" fill="white" transform="translate(0 220)"/>
</clipPath>
</defs>
</svg>
