<?xml version="1.0" encoding="utf-8"?>
<!-- Generator: Adobe Illustrator 23.0.3, SVG Export Plug-In . SVG Version: 6.00 Build 0)  -->
<svg version="1.1" id="Layer_1" xmlns="http://www.w3.org/2000/svg" xmlns:xlink="http://www.w3.org/1999/xlink" x="0px" y="0px"
	 viewBox="0 0 612 792" style="enable-background:new 0 0 612 792;" xml:space="preserve">
<style type="text/css">
	.st0{fill:#00E5DF;}
	.st1{fill:#FFFFFF;}
	.st2{fill:#ED366E;}
</style>
<path class="st0" d="M283.5,343.25L283.5,343.25c85.6,0,155,69.4,155,155v0c0,85.6-69.4,155-155,155h0c-85.6,0-155-69.4-155-155v0
	C128.5,412.65,197.9,343.25,283.5,343.25z"/>
<path class="st1" d="M299.08,509.12v81.13h-24.69v-78.31c0-21.97-8.13-40.56-31.42-40.56c-15.99,0-28.61,11.26-33.1,24.78
	c-1.4,3.38-1.68,7.05-1.68,11.83v82.26H183.5V400.27c0.33-0.34,0.66-0.67,1-1.01c5.86-5.86,12.23-11.2,19.05-15.96
	c1.53-0.96,3.07-1.89,4.64-2.8v94.82h0.56c3.93-7.04,10.1-13.24,17.67-17.47c7.3-4.22,15.99-7.04,25.25-7.04
	C269.9,450.81,299.08,462.08,299.08,509.12z"/>
<path class="st2" d="M338.9,450.81c-12.91,0-21.89,3.38-30.02,9.58c-3.26,2.45-6.42,5.47-9.31,9.06c2.5,4.53,4.47,9.54,5.91,15
	c5.54-7.76,14.16-13.36,24.44-13.36c19.92,0,29.45,15.78,29.45,41.97v77.19h24.13v-80.29C383.5,462.64,356.85,450.81,338.9,450.81z
	 M405.87,439.38v10.17h-10.94v10.94h-10.17v-10.94h-10.94v-10.17h10.94v-10.94h10.17v10.94H405.87z"/>
</svg>
