<?xml version="1.0" encoding="utf-8"?>
<!-- Generator: Adobe Illustrator 23.0.3, SVG Export Plug-In . SVG Version: 6.00 Build 0)  -->
<svg version="1.1" id="Layer_1" xmlns="http://www.w3.org/2000/svg" xmlns:xlink="http://www.w3.org/1999/xlink" x="0px" y="0px"
	 viewBox="0 0 100 100" style="enable-background:new 0 0 100 100;" xml:space="preserve">
<style type="text/css">
	.st0{fill:#00E5DF;}
	.st1{fill:#FFFFFF;}
	.st2{fill:#ED366E;}
</style>
<g>
	<path class="st0" d="M50,0L50,0c27.61,0,50,22.39,50,50v0c0,27.61-22.39,50-50,50h0C22.39,100,0,77.61,0,50v0C0,22.39,22.39,0,50,0
		z"/>
	<path class="st1" d="M55.03,53.51v26.17h-7.96V54.42c0-7.09-2.62-13.08-10.14-13.08c-5.16,0-9.23,3.63-10.68,7.99
		c-0.45,1.09-0.54,2.27-0.54,3.82v26.54h-7.96V18.39c0.11-0.11,0.21-0.22,0.32-0.33c1.89-1.89,3.95-3.61,6.15-5.15
		c0.49-0.31,0.99-0.61,1.5-0.9V42.6h0.18c1.27-2.27,3.26-4.27,5.7-5.64c2.35-1.36,5.16-2.27,8.15-2.27
		C45.61,34.7,55.03,38.33,55.03,53.51z"/>
	<path class="st2" d="M67.87,34.7c-4.16,0-7.06,1.09-9.68,3.09c-1.05,0.79-2.07,1.76-3,2.92c0.81,1.46,1.44,3.08,1.91,4.84
		c1.79-2.5,4.57-4.31,7.88-4.31c6.43,0,9.5,5.09,9.5,13.54v24.9h7.78v-25.9C82.26,38.51,73.66,34.7,67.87,34.7z M89.47,31.01v3.28
		h-3.53v3.53h-3.28v-3.53h-3.53v-3.28h3.53v-3.53h3.28v3.53H89.47z"/>
</g>
</svg>
