<svg xmlns="http://www.w3.org/2000/svg" viewBox="0 0 100 100"><defs><style>.cls-1{fill:#3215a1;}.cls-2{fill:#e7386f;}</style></defs><title>logo-main</title><g id="Layer_2" data-name="Layer 2"><path class="cls-1" d="M55,53.51V79.68h-8V54.42c0-7.09-2.62-13.09-10.13-13.09a11.44,11.44,0,0,0-10.68,8,9.75,9.75,0,0,0-.54,3.81V79.68h-8V18.39l.32-.32a45.24,45.24,0,0,1,6.15-5.15q.73-.47,1.5-.9V42.6h.18A14.76,14.76,0,0,1,31.59,37a16.36,16.36,0,0,1,8.14-2.27C45.61,34.7,55,38.33,55,53.51Z"/><path class="cls-2" d="M85.94,31V27.48H82.66V31H79.13v3.28h3.53v3.53h3.28V34.29h3.53V31ZM67.87,34.7a14.89,14.89,0,0,0-9.68,3.09,17.18,17.18,0,0,0-3,2.92,20.79,20.79,0,0,1,1.91,4.84A9.75,9.75,0,0,1,65,41.24c6.43,0,9.5,5.09,9.5,13.54v24.9h7.79V53.78C82.26,38.51,73.66,34.7,67.87,34.7Z"/></g></svg>